<?xml version="1.0" standalone="no"?>
<!DOCTYPE svg PUBLIC "-//W3C//DTD SVG 20010904//EN"
 "http://www.w3.org/TR/2001/REC-SVG-20010904/DTD/svg10.dtd">
<svg version="1.0" xmlns="http://www.w3.org/2000/svg"
 width="500.000000pt" height="500.000000pt" viewBox="0 0 500.000000 500.000000"
 preserveAspectRatio="xMidYMid meet">
<metadata>
Created by potrace 1.11, written by Peter Selinger 2001-2013
</metadata>
<g transform="translate(0.000000,500.000000) scale(0.100000,-0.100000)"
fill="#000000" stroke="none">
<path d="M4940 4641 c-8 -5 -50 -21 -93 -36 -42 -14 -89 -33 -105 -41 -15 -7
-34 -14 -42 -14 -14 0 -54 -15 -190 -70 -30 -12 -68 -26 -85 -30 -46 -13 -175
-60 -222 -81 -23 -10 -48 -19 -55 -19 -12 0 -54 -16 -188 -70 -30 -12 -68 -26
-85 -30 -44 -12 -197 -68 -222 -81 -21 -11 -18 -15 65 -78 113 -85 291 -263
373 -373 195 -264 319 -548 381 -878 30 -153 32 -489 5 -650 -157 -937 -926
-1633 -1862 -1685 l-110 -6 51 33 c28 18 405 247 837 508 l787 475 0 983 c0
540 -2 982 -4 982 -2 0 -379 -227 -837 -506 -459 -278 -841 -503 -849 -501 -8
3 -386 230 -840 506 l-825 501 -3 -977 c-2 -774 1 -980 10 -989 7 -6 384 -236
838 -510 820 -496 825 -499 780 -502 -123 -9 -392 38 -589 103 -738 246 -1271
914 -1352 1694 -22 210 -3 494 46 684 8 33 14 62 11 64 -2 2 -29 -8 -59 -22
-31 -14 -64 -25 -74 -25 -11 0 -23 -4 -28 -9 -6 -5 -48 -23 -95 -39 -120 -42
-147 -52 -213 -78 -32 -13 -67 -24 -78 -24 -19 0 -19 -23 -19 -1425 l0 -1425
2500 0 2500 0 0 2325 0 2325 -22 0 c-13 0 -30 -5 -38 -9z"/>
</g>
</svg>
